<?xml version="1.0" encoding="utf-8"?>
<!-- Generator: Adobe Illustrator 28.0.0, SVG Export Plug-In . SVG Version: 6.00 Build 0)  -->
<svg version="1.1" id="Layer_1" xmlns="http://www.w3.org/2000/svg" xmlns:xlink="http://www.w3.org/1999/xlink" x="0px" y="0px"
	 viewBox="0 0 417.04 417.04" style="enable-background:new 0 0 417.04 417.04;" xml:space="preserve">
<style type="text/css">
	.st0{fill:#D45561;}
	.st1{opacity:0.7;fill:url(#SVGID_1_);}
	.st2{fill:#FFFFFF;}
</style>
<g>
	<path class="st0" d="M417.04,294.39c0,67.74-54.91,122.65-122.65,122.65H122.65C54.91,417.04,0,362.13,0,294.39V122.65
		C0,54.91,54.91,0,122.65,0h171.75c67.74,0,122.65,54.91,122.65,122.65V294.39z"/>
	<linearGradient id="SVGID_1_" gradientUnits="userSpaceOnUse" x1="0" y1="208.521" x2="417.0419" y2="208.521">
		<stop  offset="0" style="stop-color:#FFFFFF"/>
		<stop  offset="1" style="stop-color:#FFFFFF;stop-opacity:0"/>
	</linearGradient>
	<path class="st1" d="M417.04,294.39c0,67.74-54.91,122.65-122.65,122.65H122.65C54.91,417.04,0,362.13,0,294.39V122.65
		C0,54.91,54.91,0,122.65,0h171.75c67.74,0,122.65,54.91,122.65,122.65V294.39z"/>
	<g>
		<g>
			<g>
				<path class="st2" d="M251.77,317.54h88.01L233.01,79.51h-48.97L77.26,317.54h88.09c-0.01-1.02-0.01-1.97-0.01-2.57
					c0-4.67,0.01-31.08,0.01-39.62v-22.74c0-11.37,0-22.74,0-34.12c0-6.2,0-12.4,0-18.61v-1.99c4.3,2.8,8.43,5.5,12.44,8.12
					c2.21,1.45,4.58,2.18,7.04,2.18c1.11,0,2.26-0.15,3.4-0.45l0.93-0.24c3.05-0.79,8.1-2.04,11.44-2.87l1.08-0.27
					c0.85-0.21,1.7-0.42,2.55-0.62v5.92l-0.03-0.01c-0.01,31.29-0.02,62.59,0.02,93.89c-0.01-0.01-0.01-0.01-0.02-0.01
					c0-0.86,0-1.71,0-2.56c-0.01,5.52-0.01,11.04-0.01,16.57h8.73c-0.01-4.55-0.01-11.35-0.02-15.65l0,0v-77.47
					c0.02-0.16,0.03-0.31,0.03-0.48v-22.9c0-2.89-3.05-3.4-4.99-2.85c-0.03,0.01-0.07,0.01-0.1,0.02c-0.73,0.18-1.45,0.35-2.18,0.53
					l-14.59,3.6c-1.12,0.29-2.18,0.55-3.06,0.78c-0.31,0.09-0.63,0.16-0.94,0.24c-2.47,0.65-4.69,0.26-6.81-1.13
					c-8.62-5.65-17.27-11.28-25.91-16.89c-2-1.29-3.44-2.96-3.81-5.35c-0.47-2.98,0.49-5.46,2.99-7.16c2.62-1.79,5.41-1.8,8.07-0.11
					c5.03,3.2,10,6.49,15,9.74c2.65,1.73,5.32,3.42,7.93,5.2c0.92,0.62,1.72,0.72,2.81,0.41c5.14-1.51,10.23-3.47,15.49-4.19
					c2.37-0.32,9.39-0.9,10.57-0.9c4.62-0.01,9.24-0.01,13.85-0.02c8-0.05,16-0.01,23.99,0.01c0.02,0,0.04,0.01,0.06,0.01h0.02
					c10.69,0.03,18.03,7.44,18.03,18.17c0,17.36,0.02,34.71-0.01,52.06c0,1.46-0.34,2.79-0.95,3.9c-0.01,0.03-0.03,0.05-0.04,0.09
					c-0.1,0.18-0.21,0.36-0.32,0.53c-0.04,0.05-0.08,0.11-0.12,0.16c-0.1,0.15-0.21,0.28-0.31,0.41c-0.05,0.07-0.11,0.13-0.17,0.19
					c-0.11,0.12-0.21,0.23-0.32,0.34c-0.07,0.06-0.13,0.12-0.19,0.18c-0.12,0.1-0.24,0.21-0.37,0.3c-0.06,0.05-0.13,0.1-0.19,0.15
					c-0.14,0.1-0.29,0.2-0.44,0.29c-0.05,0.03-0.1,0.06-0.15,0.09c-0.18,0.11-0.38,0.21-0.58,0.3c-0.02,0.01-0.03,0.02-0.05,0.03
					c-0.92,0.41-1.96,0.63-3.08,0.63c-0.28,0-0.55-0.02-0.82-0.06c-0.01,0-0.02,0-0.02,0c-0.05-0.01-0.09-0.01-0.14-0.02
					c-0.12-0.02-0.25-0.03-0.38-0.05c-3.33-0.57-5.8-3.41-5.88-7.13c-0.09-4.09-0.07-8.17-0.01-12.26
					c-0.01-8.87-0.01-17.74-0.01-26.61c-0.03-4.64,0-9.29-0.02-13.93c0-0.15-0.01-0.29-0.01-0.42c-0.14-1.59-0.73-2.19-2.48-2.61
					c-0.16-0.03-0.33-0.05-0.51-0.08v2.05c0,33.77-0.03,67.55,0.02,101.32c0,0.03,0,0.07,0,0.1c0,0.71,0.01,1.43,0.01,2.14h-0.01
					C251.78,307.99,251.78,312.76,251.77,317.54z M151.99,188.88c4.29,2.8,8.47,5.52,13.06,8.5c-3.08,0.69-2.79,2.86-2.79,4.96
					c0.02,16.63,0.02,33.26-0.01,49.89c0,1.18-0.07,2.41-0.4,3.53c-0.98,3.38-4.3,5.38-7.94,4.94c-3.3-0.4-5.96-3.25-6.2-6.64
					c-0.02-0.36-0.01-0.71-0.01-1.07c0-17.52,0-35.05-0.01-52.58C147.68,196.08,149.06,192.29,151.99,188.88z M191.38,176.52
					c-0.01,0.01-0.03,0.01-0.05,0.02c-0.17,0.09-0.35,0.16-0.53,0.24c-0.06,0.03-0.12,0.05-0.18,0.08
					c-0.13,0.05-0.25,0.11-0.39,0.16c-0.12,0.05-0.25,0.1-0.37,0.14c-0.05,0.02-0.11,0.04-0.16,0.06c-1.64,0.57-3.41,0.87-5.23,0.84
					c-1.24-0.02-2.46-0.19-3.62-0.51c-0.42-0.13-0.84-0.27-1.26-0.42c-6.02-2.2-9.86-7.87-9.89-14.14
					c0.04-5.81,3.23-10.97,8.41-13.5c0.02-0.01,0.03-0.02,0.05-0.02c0.17-0.09,0.35-0.16,0.53-0.24c0.06-0.03,0.12-0.05,0.18-0.08
					c0.13-0.05,0.25-0.1,0.38-0.16c0.12-0.04,0.25-0.1,0.37-0.14c0.06-0.02,0.11-0.04,0.17-0.06c1.64-0.57,3.41-0.87,5.23-0.84
					c1.24,0.02,2.45,0.19,3.62,0.51c0.42,0.13,0.84,0.27,1.26,0.42c6.02,2.19,9.85,7.87,9.88,14.13
					C199.76,168.83,196.57,173.99,191.38,176.52z M238.95,176.52c-0.01,0.01-0.03,0.01-0.05,0.02c-0.17,0.09-0.35,0.16-0.53,0.24
					c-0.06,0.03-0.12,0.05-0.18,0.08c-0.12,0.05-0.25,0.11-0.39,0.16c-0.12,0.05-0.25,0.1-0.37,0.14c-0.05,0.02-0.11,0.04-0.16,0.06
					c-1.64,0.57-3.41,0.87-5.23,0.84c-1.24-0.02-2.46-0.19-3.62-0.51c-0.42-0.13-0.84-0.27-1.26-0.42
					c-6.01-2.2-9.85-7.87-9.89-14.14c0.04-5.81,3.23-10.97,8.42-13.5c0.02-0.01,0.03-0.02,0.05-0.02c0.18-0.09,0.35-0.16,0.53-0.24
					c0.06-0.03,0.12-0.05,0.18-0.08c0.12-0.05,0.25-0.1,0.38-0.16c0.12-0.04,0.25-0.1,0.38-0.14c0.05-0.02,0.11-0.04,0.16-0.06
					c1.64-0.57,3.4-0.87,5.23-0.84c1.24,0.02,2.46,0.19,3.62,0.51c0.42,0.13,0.84,0.27,1.26,0.42c6.02,2.19,9.86,7.87,9.89,14.13
					C247.33,168.83,244.14,173.99,238.95,176.52z"/>
				<path class="st2" d="M234.25,302.76C234.25,302.76,234.24,302.76,234.25,302.76c0.03-15.91-0.02-31.83-0.02-47.75v-2.21h-3.79
					v27.8c0,6.79,0,13.58,0,20.37h0.01c-0.01,4.47-0.01,12.26-0.01,16.57h3.82C234.25,313.3,234.25,307.12,234.25,302.76z"/>
				<path class="st2" d="M186.68,303.56c-0.01,0-0.02,0-0.03,0c0.04-16.19-0.01-32.38-0.01-48.58v-2.18h-3.76v27.8
					c0,6.1,0,27.95-0.01,36.94h3.81C186.68,313.55,186.68,307.86,186.68,303.56z"/>
			</g>
		</g>
	</g>
</g>
</svg>
